<svg width="87" height="100" xmlns="http://www.w3.org/2000/svg">
    <g fill="#FFF" fill-rule="evenodd" opacity=".12">
        <path d="m72.85 25.523 8.331-8.33a2.084 2.084 0 1 0-2.946-2.948l-8.55 8.58a42.86 42.86 0 0 0-24.398-9.07v-9.59h11.6a2.083 2.083 0 0 0 0-4.165H29.532a2.083 2.083 0 0 0 0 4.165h11.59v9.56a42.86 42.86 0 0 0-24.388 9.1l-8.518-8.517a2.084 2.084 0 1 0-2.947 2.947l8.33 8.33a43.11 43.11 0 1 0 59.283 0l-.031-.062zM43.205 95.719c-21.509 0-38.945-17.437-38.945-38.946 0-21.509 17.436-38.945 38.945-38.945 21.51 0 38.946 17.436 38.946 38.945-.022 21.498-17.445 38.922-38.945 38.946z"/>
        <path d="M43.204 26.991c-1.15 0-2.082.933-2.082 2.083v27.7a2.083 2.083 0 0 0 4.165 0v-27.7c0-1.15-.932-2.083-2.083-2.083z"/>
    </g>
</svg>
