<svg width="87" height="101" xmlns="http://www.w3.org/2000/svg">
    <g fill="#FFF" fill-rule="evenodd" opacity=".12">
        <path d="m72.82 26.023 8.33-8.33a2.084 2.084 0 1 0-2.947-2.948l-8.55 8.58a42.86 42.86 0 0 0-24.398-9.07v-9.59h11.6a2.083 2.083 0 0 0 0-4.165H29.5a2.083 2.083 0 0 0 0 4.165h11.59v9.56a42.86 42.86 0 0 0-24.388 9.1l-8.518-8.517a2.084 2.084 0 1 0-2.947 2.947l8.33 8.33a43.11 43.11 0 1 0 59.283 0l-.03-.062zM43.172 96.219c-21.51 0-38.946-17.437-38.946-38.946 0-21.509 17.436-38.945 38.945-38.945 21.51 0 38.946 17.436 38.946 38.945-.022 21.498-17.445 38.922-38.944 38.946h-.001z"/>
        <path d="M62.458 37.102a2.083 2.083 0 1 0 3.04-2.843c-11.233-12.031-29.887-13.25-42.59-2.78a2.083 2.083 0 0 0 2.645 3.218 27.074 27.074 0 0 1 17.172-6.165 26.73 26.73 0 0 1 19.733 8.57zM71.31 38.737a2.083 2.083 0 0 0-2.875-.614L42.704 54.899a2.091 2.091 0 0 0 2.29 3.499L70.717 41.61a2.083 2.083 0 0 0 .593-2.874z"/>
    </g>
</svg>
