<svg width="122" height="101" xmlns="http://www.w3.org/2000/svg">
    <g fill="#FFF" fill-rule="evenodd" opacity=".12">
        <path d="M107.153 63.571a2.405 2.405 0 0 0-3.043 1.516C97.134 86.009 76.102 98.864 54.3 95.53c-21.8-3.333-38.03-21.886-38.436-43.936l5.917 5.916a2.407 2.407 0 1 0 3.403-3.403l-10.041-10.03a2.405 2.405 0 0 0-3.404 0L1.71 54.107a2.405 2.405 0 1 0 3.392 3.403l5.953-6.013c.367 24.422 18.29 45.02 42.427 48.757 24.136 3.738 47.45-10.474 55.187-33.64a2.405 2.405 0 0 0-1.515-3.043zM120.55 44.065a2.405 2.405 0 0 0-3.392 0l-6.013 5.953C110.697 25.656 92.782 5.15 68.7 1.438 44.62-2.277 21.36 11.877 13.591 34.972a2.405 2.405 0 1 0 4.558 1.515c6.978-20.925 28.017-33.78 49.821-30.44S106 27.95 106.395 50.006l-5.917-5.917a2.407 2.407 0 0 0-3.403 3.403l10.042 10.042c.112.11.233.21.36.3h.097l.312.169h.145l.312.096c.314.063.637.063.95 0l.301-.096h.144l.313-.169h.096c.132-.09.257-.19.373-.3l10.03-10.042a2.405 2.405 0 0 0 0-3.427z"/>
        <path d="M69.464 65.038a2.405 2.405 0 1 0 3.403-3.403l-9.332-9.333V30.764a2.405 2.405 0 0 0-4.81 0v22.537c.002.636.257 1.246.71 1.695l10.029 10.042z"/>
        <path d="M61.13 83.318c17.924 0 32.458-14.525 32.47-32.45.01-17.925-14.505-32.468-32.43-32.49-17.925-.022-32.477 14.485-32.51 32.41.02 17.935 14.537 32.478 32.471 32.53h-.001zm0-60.237c15.276 0 27.66 12.383 27.66 27.66 0 15.275-12.384 27.659-27.66 27.659S33.47 66.016 33.47 50.74c.046-15.256 12.402-27.613 27.659-27.66z"/>
    </g>
</svg>
