<?xml version="1.0" encoding="UTF-8"?>
<svg width="46px" height="30px" viewBox="0 0 46 30" version="1.1" xmlns="http://www.w3.org/2000/svg" xmlns:xlink="http://www.w3.org/1999/xlink">
    <title>Partner_logo</title>
    <g id="Simulator" stroke="none" stroke-width="1" fill="none" fill-rule="evenodd">
        <g id="Main-screen-" transform="translate(-971.000000, -542.000000)">
            <g id="Group-7" transform="translate(945.000000, 436.000000)">
                <g id="Partner_logo" transform="translate(26.000122, 106.000000)">
                    <rect id="rect5723" fill="#2DD5C4" fill-rule="nonzero" x="0" y="0.06427002" width="45.08091" height="29.935705"></rect>
                    <g id="g4781" transform="translate(35.517097, 18.523379) scale(-1, 1) rotate(180.000000) translate(-35.517097, -18.523379) translate(32.549440, 15.351505)" fill="#000000">
                        <path d="M3.12637799,6.343748 C1.53952003,6.343748 0,5.26526643 0,3.20101718 C0,1.11324917 1.58685778,0 3.22035729,0 C4.10202241,0 4.92277494,0.327566596 5.55382828,0.945886893 L4.78354611,1.82632857 C4.36133572,1.40161686 3.80268075,1.21755238 3.24367797,1.21755238 C2.40935067,1.21755238 1.65716835,1.635106 1.45737527,2.57451668 L5.887977,2.57451668 C5.9353147,2.87617776 5.9353147,3.11955191 5.9353147,3.14273044 C5.9353147,5.3695697 4.63039481,6.343748 3.12637799,6.343748 M1.421872,3.6765175 C1.53952015,4.66228503 2.28021619,5.1609634 3.06755392,5.1609634 C3.85489152,5.1609634 4.56008431,4.67387425 4.5837532,3.6765175 L1.421872,3.6765175 Z" id="path4783"></path>
                    </g>
                    <g id="g4789" transform="translate(41.116990, 18.488650) scale(-1, 1) rotate(180.000000) translate(-41.116990, -18.488650) translate(39.313110, 15.409490)" fill="#000000" fill-rule="nonzero">
                        <path d="M2.91440273,6.1583204 C2.31502357,6.1583204 1.68048912,5.94971407 1.32754468,5.32355391 L1.32754468,6.11196346 L0,6.11196346 L0,0 L1.3512135,0 L1.3512135,3.37485626 C1.3512135,4.43050046 1.92761985,4.83646464 2.62063033,4.83646464 C2.85592659,4.83646464 3.12603013,4.78976702 3.39648164,4.68546385 L3.607761,6.06560652 C3.38464717,6.13514171 3.12603013,6.1583204 2.91440273,6.1583204" id="path4791"></path>
                    </g>
                    <g id="g4797" transform="translate(13.974170, 18.523438) scale(-1, 1) rotate(180.000000) translate(-13.974170, -18.523438) translate(10.178102, 15.351564)" fill="#000000">
                        <path d="M6.83995258,1.19437391 C6.59317023,1.19437391 6.36970788,1.3337857 6.36970788,1.75133932 L6.36970788,6.23944473 L5.05364954,6.23944473 L5.05364954,5.48546211 C4.57157068,6.11196331 3.7960675,6.343748 3.09087462,6.343748 C1.57467538,6.343748 0,5.30003436 0,3.15431971 C0,1.10200082 1.4573753,0 2.93807136,0 C3.7960675,0 4.64222917,0.359607434 5.21828772,1.00894603 C5.44140159,0.312909601 6.005625,0 6.59317023,0 C6.93393182,0 7.29836265,0.104303207 7.592135,0.301320367 L7.28652849,1.29901797 C7.15739371,1.24073085 6.99275591,1.19437391 6.83995258,1.19437391 M3.1496987,1.2178934 C2.23287853,1.2178934 1.3515615,1.8556427 1.3515615,3.1894285 C1.3515615,4.53446258 2.25654735,5.1609636 3.17301952,5.1609636 C4.08983991,5.1609636 5.0299809,4.5228735 5.0299809,3.20101781 C5.0299809,1.86723197 4.07800541,1.2178934 3.1496987,1.2178934" id="path4799"></path>
                    </g>
                    <g id="g4801" transform="translate(20.120199, 18.488833) scale(-1, 1) rotate(180.000000) translate(-20.120199, -18.488833) translate(18.315796, 15.409673)" fill="#000000" fill-rule="nonzero">
                        <path d="M1.32824078,5.32355391 L1.32824078,6.11230444 L0,6.11230444 L0,0 L1.35156157,0 L1.35156157,3.37519744 C1.35156157,4.43050046 1.92761984,4.83646464 2.62167449,4.83646464 C2.85662265,4.83646464 3.12707431,4.79010764 3.39752579,4.68580441 L3.6088052,6.06560652 C3.38569132,6.13514171 3.12707431,6.1583204 2.9154469,6.1583204 C2.31571963,6.1583204 1.68048915,5.94971407 1.32824078,5.32355391" id="path4803"></path>
                    </g>
                    <g id="g3409" transform="translate(0.002075, 13.170959)" fill="#000000">
                        <g id="g4785" transform="translate(7.403518, 4.198375) scale(-1, 1) rotate(180.000000) translate(-7.403518, -4.198375) translate(4.606415, 0.000001)">
                            <path d="M0,3.39121769 L0,0 L1.39855125,0 L1.39855125,3.39121769 L2.97322681,3.39121769 C4.66589837,3.39121769 5.594205,4.69705322 5.594205,5.94937292 C5.594205,7.16726645 4.73620863,8.396749 3.03205072,8.396749 L0,8.396749 L0,4.73659268 M2.82042311,4.736593 L1.3985512,4.736593 L1.3985512,7.132499 L2.84409198,7.132499 C3.73724337,7.132499 4.1719846,6.56428521 4.1719846,5.96096254 C4.1719846,5.34639181 3.72575703,4.736593 2.82042311,4.736593" id="path4787"></path>
                        </g>
                        <polygon id="rect5721" fill-rule="nonzero" points="-2.6719628e-16 3.6164637 4.978658 3.6164637 4.978658 4.9552911 -1.949886e-23 4.9552911"></polygon>
                    </g>
                    <g id="g3414" transform="translate(22.523682, 0.000000)" fill="#000000" fill-rule="nonzero">
                        <g id="g4793" transform="translate(4.618826, 18.523402) scale(-1, 1) rotate(180.000000) translate(-4.618826, -18.523402) translate(0.000092, 15.351528)">
                            <path d="M7.02825956,6.343748 C6.20541852,6.343748 5.50022552,5.98448125 5.06548437,5.30003436 L5.06548437,6.23944473 L3.74907797,6.23944473 L3.74907797,2.73710694 C3.74907797,1.83246406 3.43163669,1.21755238 2.59730932,1.21755238 C1.71599233,1.21755238 1.34494814,1.90199965 1.34494814,2.7135875 L1.3411194,4.99837309 L2.69163681,4.99837309 L2.69163681,6.23944473 L1.0076669,6.23944473 L1.0076669,6.20672241 L0,6.20672241 L0,2.50498115 C0,0.985426649 0.998965116,0 2.49184357,0 C3.16188126,0 3.866726,0.197017154 4.38361209,0.707284765 C5.07697079,1.40332124 5.10098728,2.31955327 5.10098728,3.00365937 C5.10098728,3.74605272 5.23012193,5.06824929 6.59351831,5.06824929 C7.40417624,5.06824929 7.88625545,4.59240856 7.88625545,3.67651744 L7.88625545,0.127481695 L9.237469,0.127481695 L9.237469,4.11724978 C9.237469,5.61294379 8.19186233,6.343748 7.02825956,6.343748" id="path4795"></path>
                        </g>
                        <polygon id="rect6591" points="4.25436719e-15 0 4.25436719e-15 15.734318 1.3806193 15.734318 1.3806193 0 0 0"></polygon>
                    </g>
                </g>
            </g>
        </g>
    </g>
</svg>